<svg width="20" height="34" viewBox="0 0 20 34" fill="none" xmlns="http://www.w3.org/2000/svg">
<path fill-rule="evenodd" clip-rule="evenodd" d="M7.73078 3.29503C9.37173 1.61201 11.5973 0.666504 13.918 0.666504H18.418C19.1083 0.666504 19.668 1.2405 19.668 1.94856V8.1024C19.668 8.81046 19.1083 9.38445 18.418 9.38445H13.918C13.8517 9.38445 13.7881 9.41147 13.7412 9.45955C13.6943 9.50764 13.668 9.57286 13.668 9.64086V12.9742H18.418C18.8029 12.9742 19.1663 13.1561 19.4032 13.4673C19.6401 13.7784 19.724 14.1842 19.6306 14.5672L18.1306 20.721C17.9915 21.2918 17.4916 21.6921 16.918 21.6921H13.668V32.7178C13.668 33.4258 13.1083 33.9998 12.418 33.9998H6.41797C5.72761 33.9998 5.16797 33.4258 5.16797 32.7178V21.6921H1.91797C1.22761 21.6921 0.667969 21.1181 0.667969 20.4101V14.2562C0.667969 13.5482 1.22761 12.9742 1.91797 12.9742H5.16797V9.64086C5.16797 7.26071 6.08984 4.97805 7.73078 3.29503ZM13.918 3.23061C12.2604 3.23061 10.6707 3.90597 9.49855 5.10813C8.32645 6.31028 7.66797 7.94076 7.66797 9.64086V14.2562C7.66797 14.9643 7.10833 15.5383 6.41797 15.5383H3.16797V19.128H6.41797C7.10833 19.128 7.66797 19.702 7.66797 20.4101V31.4357H11.168V20.4101C11.168 19.702 11.7276 19.128 12.418 19.128H15.942L16.817 15.5383H12.418C11.7276 15.5383 11.168 14.9643 11.168 14.2562V9.64086C11.168 8.89281 11.4577 8.17541 11.9734 7.64646C12.4892 7.11751 13.1886 6.82035 13.918 6.82035H17.168V3.23061H13.918Z" fill="#373867"/>
</svg>
