<svg width="31" height="34" viewBox="0 0 31 34" fill="none" xmlns="http://www.w3.org/2000/svg">
<path d="M12.9079 29.5464C12.9078 29.3242 12.859 29.1048 12.7647 28.9037C12.6704 28.7025 12.533 28.5246 12.3623 28.3824C12.1916 28.2403 11.9917 28.1374 11.7768 28.0812C11.5619 28.0249 11.3372 28.0166 11.1187 28.0568C9.13582 28.4207 6.6322 28.4754 5.96654 26.6057C5.3861 25.1576 4.42464 23.8935 3.18409 22.9476C3.09558 22.8994 3.01122 22.844 2.93188 22.7819C2.82331 22.4955 2.63047 22.2487 2.37879 22.0742C2.12712 21.8996 1.82844 21.8054 1.52216 21.8041H1.51476C1.11426 21.8039 0.730019 21.9625 0.44613 22.245C0.162242 22.5275 0.00183611 22.9109 2.12382e-05 23.3114C-0.00590141 24.5466 1.22848 25.338 1.72925 25.6057C2.31977 26.1991 2.79435 26.8974 3.12862 27.6648C3.68038 29.2151 5.28387 31.5671 9.89319 31.2639C9.8947 31.3171 9.89614 31.3674 9.89688 31.4133L9.90353 31.8186C9.90353 32.2203 10.0631 32.6056 10.3472 32.8897C10.6313 33.1737 11.0165 33.3333 11.4183 33.3333C11.82 33.3333 12.2053 33.1737 12.4894 32.8897C12.7734 32.6056 12.933 32.2203 12.933 31.8186L12.9256 31.3364C12.9182 31.0493 12.9079 30.6336 12.9079 29.5464ZM29.0656 6.63438C29.1137 6.44503 29.1611 6.23498 29.2025 5.9983C29.4475 4.31026 29.2339 2.58739 28.5842 1.01025C28.5022 0.804648 28.3762 0.619462 28.2151 0.467678C28.054 0.315895 27.8616 0.201187 27.6515 0.131598C27.1122 -0.0503532 25.1213 -0.408332 21.3137 2.02503C18.1487 1.28022 14.854 1.28022 11.689 2.02503C7.89695 -0.37269 5.91625 -0.0473238 5.38224 0.124266C5.16694 0.191037 4.96931 0.305137 4.80383 0.458203C4.63835 0.61127 4.50922 0.799425 4.4259 1.00888C3.7629 2.61629 3.55166 4.3743 3.81498 6.09302C3.85197 6.2868 3.8919 6.4658 3.93333 6.62998C2.67847 8.30141 2.01007 10.3401 2.03176 12.4301C2.02767 12.8964 2.04915 13.3625 2.09611 13.8265C2.60203 20.7982 7.14626 22.8913 10.3125 23.6102C10.2467 23.7996 10.1868 24.0022 10.1336 24.2167C10.0386 24.6064 10.1022 25.0179 10.3102 25.3609C10.5182 25.7039 10.8537 25.9504 11.2432 26.0463C11.6327 26.1423 12.0443 26.0798 12.3879 25.8727C12.7314 25.6656 12.9788 25.3307 13.0758 24.9415C13.1722 24.4368 13.4192 23.9732 13.7843 23.6117C14.0051 23.4184 14.165 23.1651 14.2444 22.8826C14.3239 22.6002 14.3196 22.3007 14.232 22.0206C14.1444 21.7406 13.9773 21.492 13.751 21.3052C13.5247 21.1183 13.249 21.0013 12.9574 20.9683C7.72537 20.3707 5.45398 18.2391 5.11228 13.5484C5.07443 13.1769 5.05739 12.8035 5.06125 12.4301C5.03695 10.9406 5.52904 9.48859 6.45395 8.32077C6.54688 8.19902 6.64587 8.08201 6.75054 7.97018C6.93599 7.76267 7.06068 7.50807 7.11091 7.23433C7.16115 6.96059 7.13499 6.67831 7.03531 6.41846C6.93312 6.1451 6.85443 5.86351 6.80011 5.57677C6.67671 4.76141 6.71719 3.92962 6.91917 3.13009C8.23569 3.50192 9.47472 4.10717 10.5773 4.91701C10.7596 5.03845 10.9659 5.11927 11.1822 5.15398C11.3985 5.18869 11.6198 5.17649 11.8309 5.11819C14.8924 4.28736 18.12 4.28788 21.1812 5.11971C21.3935 5.17794 21.616 5.18944 21.8331 5.15344C22.0503 5.11743 22.2571 5.03477 22.4393 4.91114C23.5367 4.09794 24.7705 3.48728 26.0827 3.10795C26.2838 3.88827 26.3288 4.70063 26.2151 5.49839C26.1602 5.81276 26.0745 6.12095 25.9592 6.41849C25.8595 6.67834 25.8333 6.96062 25.8836 7.23436C25.9338 7.50809 26.0585 7.7627 26.2439 7.97021C26.3608 8.10186 26.4777 8.24387 26.5827 8.377C27.501 9.52505 27.9848 10.9604 27.9488 12.4301C27.9516 12.8233 27.9325 13.2164 27.8919 13.6076C27.5583 18.2361 25.278 20.3692 20.0216 20.9683C19.7299 21.0015 19.4542 21.1187 19.2279 21.3057C19.0017 21.4927 18.8346 21.7415 18.7471 22.0216C18.6596 22.3018 18.6554 22.6014 18.7349 22.884C18.8145 23.1665 18.9745 23.4198 19.1954 23.6131C19.572 23.9843 19.8196 24.4665 19.9017 24.9888C20.0041 25.3943 20.0511 25.8118 20.0415 26.2299V29.7653C20.0267 30.746 20.0267 31.4812 20.0267 31.8185C20.0267 32.2202 20.1863 32.6055 20.4704 32.8896C20.7544 33.1737 21.1397 33.3332 21.5414 33.3332C21.9432 33.3332 22.3285 33.1737 22.6125 32.8896C22.8966 32.6055 23.0562 32.2202 23.0562 31.8185C23.0562 31.4901 23.0562 30.7697 23.071 29.789V26.2299C23.0832 25.5602 23.0043 24.8918 22.8365 24.2433C22.7885 24.0304 22.7298 23.8201 22.6605 23.6132C24.9648 23.2304 27.0585 22.0423 28.5689 20.2605C30.0794 18.4786 30.9085 16.2186 30.9087 13.8827C30.9587 13.4002 30.9819 12.9152 30.9783 12.4301C31.0119 10.3379 30.338 8.2956 29.0656 6.63438Z" fill="#373867"/>
</svg>
