<svg width="34" height="34" viewBox="0 0 34 34" fill="none" xmlns="http://www.w3.org/2000/svg">
<path d="M24.3564 8.52188C24.3564 7.54861 25.1454 6.75962 26.1186 6.75962C27.0919 6.75962 27.8809 7.54861 27.8809 8.52188C27.8809 9.49515 27.0919 10.2841 26.1186 10.2841C25.1454 10.2841 24.3564 9.49515 24.3564 8.52188Z" fill="#373867"/>
<path fill-rule="evenodd" clip-rule="evenodd" d="M17.3073 8.96245C12.6843 8.96245 8.93662 12.7101 8.93662 17.3332C8.93662 21.9562 12.6843 25.7039 17.3073 25.7039C21.9304 25.7039 25.6781 21.9562 25.6781 17.3332C25.6781 12.7101 21.9304 8.96245 17.3073 8.96245ZM11.58 17.3332C11.58 14.17 14.1442 11.6058 17.3073 11.6058C20.4705 11.6058 23.0347 14.17 23.0347 17.3332C23.0347 20.4963 20.4705 23.0605 17.3073 23.0605C14.1442 23.0605 11.58 20.4963 11.58 17.3332Z" fill="#373867"/>
<path fill-rule="evenodd" clip-rule="evenodd" d="M26.5737 1.17858C20.4647 0.495811 14.15 0.495811 8.04099 1.17858C4.49522 1.57487 1.63273 4.36807 1.21586 7.93229C0.485338 14.1783 0.485338 20.4881 1.21586 26.7341C1.63273 30.2983 4.49522 33.0915 8.04099 33.4878C14.15 34.1705 20.4647 34.1705 26.5737 33.4878C30.1195 33.0915 32.982 30.2983 33.3989 26.7341C34.1294 20.4881 34.1294 14.1783 33.3989 7.93229C32.982 4.36807 30.1195 1.57487 26.5737 1.17858ZM8.33459 3.80561C14.2485 3.14465 20.3663 3.14465 26.2801 3.80561C28.6241 4.06759 30.5018 5.91728 30.7734 8.23936C31.48 14.2813 31.48 20.385 30.7734 26.427C30.5018 28.7491 28.6241 30.5988 26.2801 30.8607C20.3663 31.5217 14.2485 31.5217 8.3346 30.8607C5.9906 30.5988 4.11294 28.7491 3.84135 26.427C3.13469 20.385 3.13469 14.2813 3.84135 8.23936C4.11294 5.91728 5.9906 4.06759 8.33459 3.80561Z" fill="#373867"/>
</svg>
