<svg width="35" height="35" viewBox="0 0 35 35" fill="none" xmlns="http://www.w3.org/2000/svg">
<path fill-rule="evenodd" clip-rule="evenodd" d="M4.69512 0C2.10208 0 0 2.10208 0 4.69512C0 7.28817 2.10208 9.39024 4.69512 9.39024C7.28817 9.39024 9.39024 7.28817 9.39024 4.69512C9.39024 2.10208 7.28817 0 4.69512 0ZM2.56098 4.69512C2.56098 3.51647 3.51647 2.56098 4.69512 2.56098C5.87378 2.56098 6.82927 3.51647 6.82927 4.69512C6.82927 5.87378 5.87378 6.82927 4.69512 6.82927C3.51647 6.82927 2.56098 5.87378 2.56098 4.69512Z" fill="#373867"/>
<path fill-rule="evenodd" clip-rule="evenodd" d="M0 11.5244C0 10.8172 0.573294 10.2439 1.28049 10.2439H8.10976C8.81695 10.2439 9.39024 10.8172 9.39024 11.5244V33.7195C9.39024 34.4267 8.81695 35 8.10976 35H1.28049C0.573294 35 0 34.4267 0 33.7195V11.5244ZM2.56098 12.8049V32.439H6.82927V12.8049H2.56098Z" fill="#373867"/>
<path fill-rule="evenodd" clip-rule="evenodd" d="M11.9512 11.5244C11.9512 10.8172 12.5245 10.2439 13.2317 10.2439H20.061C20.7682 10.2439 21.3415 10.8172 21.3415 11.5244V12.2654L22.0846 11.9469C23.3623 11.3994 24.7286 11.056 26.1104 10.9304C30.8482 10.4997 35 14.2226 35 19.0029V33.7195C35 34.4267 34.4267 35 33.7195 35H26.8902C26.1831 35 25.6098 34.4267 25.6098 33.7195V21.7683C25.6098 21.2023 25.3849 20.6595 24.9847 20.2592C24.5844 19.859 24.0416 19.6341 23.4756 19.6341C22.9096 19.6341 22.3668 19.859 21.9665 20.2592C21.5663 20.6595 21.3415 21.2023 21.3415 21.7683V33.7195C21.3415 34.4267 20.7682 35 20.061 35H13.2317C12.5245 35 11.9512 34.4267 11.9512 33.7195V11.5244ZM14.5122 12.8049V32.439H18.7805V21.7683C18.7805 20.5231 19.2752 19.3288 20.1557 18.4483C21.0362 17.5678 22.2304 17.0732 23.4756 17.0732C24.7208 17.0732 25.9151 17.5678 26.7956 18.4483C27.6761 19.3288 28.1707 20.5231 28.1707 21.7683V32.439H32.439V19.0029C32.439 15.7515 29.6032 13.1844 26.3423 13.4808C25.2257 13.5823 24.1217 13.8601 23.0934 14.3008L20.5654 15.3843C20.1698 15.5538 19.7154 15.5133 19.3561 15.2763C18.9967 15.0394 18.7805 14.6377 18.7805 14.2073V12.8049H14.5122Z" fill="#373867"/>
</svg>
