<svg width="41" height="34" viewBox="0 0 41 34" fill="none" xmlns="http://www.w3.org/2000/svg">
<path fill-rule="evenodd" clip-rule="evenodd" d="M26.1668 0.818363C27.1206 0.655 28.1886 0.600454 29.1936 0.770496C30.9887 1.07418 32.6467 1.90847 33.9574 3.15929C34.8141 3.17866 35.6561 3.00988 36.4011 2.76926C37.0316 2.56563 37.5642 2.31974 37.9375 2.12532C38.123 2.02865 38.2664 1.94619 38.3596 1.89036C38.4061 1.86249 38.4399 1.8414 38.46 1.82866L38.4779 1.81728C39.0347 1.44636 39.7761 1.51855 40.2505 1.99036C40.725 2.46229 40.8014 3.20314 40.4332 3.76199C40.0436 4.35347 39.5026 5.40789 38.8966 6.58929C38.8013 6.77505 38.7044 6.96395 38.6062 7.15468C38.2586 7.82995 37.9022 8.51246 37.57 9.098C37.3614 9.46566 37.1383 9.83893 36.9134 10.1615V10.6751C36.9277 12.5616 36.7113 14.4383 36.2722 16.264C35.9959 17.4127 35.6314 18.5413 35.1807 19.6394C34.0131 22.4846 32.2902 25.0686 30.1127 27.2405C27.9353 29.4124 25.3468 31.1287 22.4986 32.289C19.653 33.4483 16.605 34.0295 13.5325 33.9987C9.07839 34.0025 4.71798 32.7193 0.975964 30.3032C0.424805 29.9473 0.192751 29.2578 0.416621 28.6411C0.640491 28.0244 1.26086 27.6443 1.91195 27.7249C2.47541 27.7946 3.04272 27.8286 3.61049 27.8268C5.6505 27.8211 7.65166 27.3703 9.47858 26.5212C8.89788 26.2568 8.34347 25.9309 7.82541 25.5467C6.30266 24.4176 5.16976 22.8419 4.58433 21.0388C4.4322 20.5703 4.5362 20.0563 4.85852 19.6838C4.86429 19.6771 4.87012 19.6705 4.876 19.6639C4.53171 19.3569 4.20955 19.0227 3.91297 18.6632C2.57857 17.0457 1.8438 15.017 1.83296 12.9202L1.83292 12.9129L1.83294 12.8191C1.83294 12.3204 2.09698 11.8589 2.52696 11.6061C2.63596 11.5421 2.75148 11.4939 2.87033 11.4615C2.23563 10.1951 1.90557 8.79666 1.90798 7.37795C1.90723 5.77069 2.32706 4.1912 3.12577 2.79642C3.35635 2.39377 3.77061 2.13069 4.23309 2.09322C4.69557 2.05574 5.14679 2.24869 5.43918 2.60896C7.24489 4.83387 9.49846 6.65403 12.0535 7.9512C13.3669 8.61802 14.7449 9.13896 16.1627 9.50747C16.9577 9.71407 17.7651 9.87275 18.5807 9.98235C18.5448 8.62555 18.8127 7.26948 19.375 6.01647C20.1998 4.17836 21.6114 2.666 23.3884 1.71659C24.1409 1.31452 25.1399 0.994273 26.1668 0.818363ZM5.00945 14.9771C5.25266 15.6617 5.61447 16.3038 6.08357 16.8724C7.00527 17.9897 8.28457 18.7542 9.70508 19.0368C10.3378 19.1627 10.8039 19.7027 10.8358 20.3471C10.8678 20.9914 10.4574 21.5749 9.8402 21.7628C9.32901 21.9183 8.80529 22.0267 8.2756 22.0869C8.62562 22.5381 9.03735 22.9423 9.50148 23.2864C10.5542 24.0671 11.8242 24.5001 13.1345 24.5253C13.7291 24.5368 14.2522 24.9208 14.4413 25.4845C14.6305 26.0483 14.4448 26.6701 13.9775 27.0378C12.0093 28.5864 9.73337 29.6663 7.32174 30.2176C9.32054 30.8578 11.4168 31.1873 13.5372 31.1847L13.5535 31.1847C16.255 31.2128 18.935 30.7023 21.437 29.683C23.939 28.6638 26.2127 27.1561 28.1255 25.2482C30.0383 23.3403 31.5518 21.0704 32.5775 18.5711C32.9734 17.6064 33.2935 16.6151 33.5362 15.606C33.9224 14.0006 34.1124 12.3504 34.0995 10.6915L34.0994 10.6805V9.68625C34.0994 9.3451 34.2234 9.01557 34.4482 8.75899C34.5781 8.61071 34.8055 8.26825 35.1225 7.7094C35.4239 7.17826 35.7574 6.54062 36.1043 5.8668C36.1253 5.82605 36.1463 5.78509 36.1675 5.74394C35.2678 5.93931 34.2481 6.04171 33.1791 5.92619C32.8406 5.8896 32.5268 5.73148 32.2959 5.48115C31.3526 4.45812 30.0963 3.77714 28.7242 3.54501C28.1154 3.44201 27.3794 3.46558 26.6419 3.5919C25.8407 3.72915 25.1434 3.9693 24.7144 4.19849C23.487 4.85427 22.512 5.89889 21.9423 7.16851C21.3726 8.43813 21.2403 9.86095 21.5664 11.2138C21.6703 11.6451 21.5647 12.1002 21.2815 12.4417C20.9983 12.7831 20.5706 12.971 20.1275 12.9486C18.5453 12.8686 16.9798 12.6273 15.4549 12.2309C13.8418 11.8117 12.274 11.219 10.7796 10.4603C8.57955 9.34333 6.57593 7.88553 4.84097 6.14522C4.76182 6.5497 4.72164 6.96246 4.72191 7.37789L4.72191 7.38149C4.71995 8.41462 4.97349 9.43219 5.45994 10.3436C5.94639 11.2551 6.65067 12.0321 7.51007 12.6055C8.03163 12.9534 8.25999 13.6046 8.07004 14.2021C7.88009 14.7996 7.31768 15.1993 6.69092 15.1823C6.12327 15.1668 5.56036 15.0978 5.00945 14.9771Z" fill="#373867"/>
</svg>
